# AST/ASF file generated using VICON BodyLanguage
# -----------------------------------------------
:version 1.10
:name VICON
:units
  mass 1.0
  length 0.45
  angle deg
:documentation
   .ast/.asf automatically generated from VICON data using
   VICON BodyBuilder and BodyLanguage model FoxedUp or BRILLIANT.MOD
:root
   order TX TY TZ RX RY RZ
   axis XYZ
   position 0 0 0  
   orientation 0 0 0 
:bonedata
  begin
     id 1 
     name lhipjoint
     direction 0.547975 -0.797114 0.253638 
     length 2.36201 
     axis 0 0 0  XYZ
  end
  begin
     id 2 
     name lfemur
     direction 0.34202 -0.939693 0  
     length 7.69075  
     axis 0 0 20  XYZ
    dof rx ry rz
    limits (-160.0 20.0)
           (-70.0 70.0)
           (-60.0 70.0)
  end
  begin
     id 3 
     name ltibia
     direction 0.34202 -0.939693 0   
     length 7.91399   
     axis 0 0 20   XYZ
    dof rx
    limits (-10.0 170.0)
  end
  begin
     id 4 
     name lfoot
     direction 0.0705293 -0.193778 0.978507   
     length 2.13618   
     axis -90 7.62852e-016 20   XYZ
    dof rx rz
    limits (-45.0 90.0)
           (-70.0 20.0)
  end
  begin
     id 5 
     name ltoes
     direction 1.53592e-011 -4.21925e-011 1   
     length 1.07518   
     axis -90 7.62852e-016 20   XYZ
    dof rx
    limits (-90.0 20.0)
  end
  begin
     id 6 
     name rhipjoint
     direction -0.57 -0.782963 0.249136   
     length 2.4047  
     axis 0 0 0  XYZ 
  end
  begin
     id 7 
     name rfemur
     direction -0.34202 -0.939693 0   
     length 7.51486   
     axis 0 0 -20   XYZ
    dof rx ry rz
    limits (-160.0 20.0)
           (-70.0 70.0)
           (-70.0 60.0)
  end
  begin
     id 8 
     name rtibia
     direction -0.34202 -0.939693 0   
     length 8.08317   
     axis 0 0 -20   XYZ
    dof rx
    limits (-10.0 170.0)
 end
 begin
     id 9 
     name rfoot
     direction -0.104954 -0.281256 0.953876   
     length 2.30343  
     axis -90 -7.62852e-016 -20   XYZ
    dof rx rz
    limits (-45.0 90.0)
           (-20.0 70.0)
  end
  begin
     id 10 
     name rtoes
     direction -1.53556e-011 -4.21922e-011 1   
     length 1.14803   
     axis -90 -7.62852e-016 -20   XYZ
    dof rx
    limits (-90.0 20.0)
  end
  begin
     id 11 
     name lowerback
     direction -0.0152855 0.99353 -0.11254   
     length 2.05311   
     axis 0 0 0   XYZ
    dof rx ry rz
    limits (-20.0 45.0)
           (-30.0 30.0)
           (-30.0 30.0)
  end
  begin
     id 12 
     name upperback
     direction -0.00157509 0.999443 -0.033332   
     length 2.06353   
     axis 0 0 0   XYZ
    dof rx ry rz
    limits (-20.0 45.0)
           (-30.0 30.0)
           (-30.0 30.0)
  end
  begin
     id 13 
     name thorax
     direction 0.00577788 0.999804 0.0189484   
     length 2.08472   
     axis 0 0 0   XYZ
    dof rx ry rz
    limits (-20.0 45.0)
           (-30.0 30.0)
           (-30.0 30.0)
  end
  begin
     id 14 
     name lowerneck
     direction -1.09301e-005 0.994719 0.10264   
     length 1.76249   
     axis 0 0 0   XYZ
    dof rx ry rz
    limits (-20.0 45.0)
           (-30.0 30.0)
           (-30.0 30.0)
  end
  begin
     id 15 
     name upperneck
     direction 0.0495018 0.988526 -0.142706   
     length 1.77897   
     axis 0 0 0   XYZ
    dof rx ry rz
    limits (-20.0 45.0)
           (-30.0 30.0)
           (-30.0 30.0)
  end
  begin
     id 16
     name head
     direction 0.0142736 0.998114 -0.0597101  
     length 1.78934  
     axis 0 0 0   XYZ
    dof rx ry rz
    limits (-20.0 45.0)
           (-30.0 30.0)
           (-30.0 30.0)
  end
  begin
     id 17 
     name lclavicle
     direction 0.918111 0.396107 -0.0130883  
     length 3.37276  
     axis 0 0 0   XYZ
    dof ry rz
    limits (-20.0 10.0)
           (0.0 20.0)
  end
  begin
     id 18 
     name lhumerus
     direction 1 -4.48975e-011 -3.26108e-027   
     length 5.34298   
     axis 180 -30 -90   XYZ
    dof rx ry rz
    limits (-60.0 90.0)
           (-90.0 90.0)
           (-90.0 90.0)
  end
  begin
     id 19
     name lradius
     direction 1 -4.48964e-011 -8.84413e-028   
     length 3.67262   
     axis 180 -30 -90   XYZ
    dof rx
    limits (-10.0 170.0)
  end
  begin
     id 20
     name lwrist
     direction 1 -4.48991e-011 -1.24264e-027   
     length 1.83631   
     axis -2.17013e-015 90 90   XYZ
    dof ry
    limits (-180.0 0.0)
 end
  begin
     id 21 
     name lhand
     direction 1 -4.48855e-011 -2.48528e-027   
     length 0.599298   
     axis 1.58582e-015 90 90   XYZ
    dof rx rz
    limits (-90.0 90.0)
           (-45.0 45.0)
  end
  begin
     id 22 
     name lfingers
     direction 1 -4.48811e-011 -4.97056e-027   
     length 0.48317   
     axis 3.17164e-015 90 90   XYZ
    dof rx
    limits (0.0 90.0)
  end
  begin
     id 23
     name lthumb
     direction 0.707107 -6.34882e-011 0.707107   
     length 0.693738   
     axis -90 45 2.85299e-015   XYZ
    dof rx rz
    limits (-45.0 45.0)
           (-45.0 45.0)
  end
  begin
     id 24 
     name rclavicle
     direction -0.920511 0.384752 -0.0680135   
     length 3.43787  
     axis 0 0 0   XYZ 
    dof ry rz
    limits (-10.0 20.0)
           (-20.0 0.0)
  end
  begin
     id 25 
     name rhumerus
     direction -0.999976 -0.00330524 0.00603274  
     length 5.5498   
     axis 180 30 90   XYZ
    dof rx ry rz
    limits (-90.0 60.0)
           (-90.0 90.0)
           (-90.0 90.0)
  end
  begin
     id 26 
     name rradius
     direction -1 -4.48967e-011 8.62438e-027   
     length 3.69401   
     axis 180 30 90   XYZ
    dof rx
    limits (-10.0 170.0)
  end
  begin
     id 27 
     name rwrist
     direction -1 -4.4897e-011 9.54866e-027   
     length 1.84701   
     axis -7.69462e-015 -90 -90   XYZ
    dof ry
    limits (-180.0 0.0)
  end
  begin
     id 28
     name rhand
     direction -1 -4.48982e-011 1.90973e-026   
     length 0.638113   
     axis -1.21857e-014 -90 -90   XYZ
    dof rx rz
    limits (-90.0 90.0)
           (-45.0 45.0)
  end
  begin
     id 29
     name rfingers
     direction -1 -4.48936e-011 3.81946e-026   
     length 0.514463   
     axis -2.43714e-014 -90 -90   XYZ
    dof rx
    limits (0.0 90.0)
  end
  begin
     id 30
     name rthumb
     direction -0.707107 -6.34942e-011 0.707107   
     length 0.738669   
     axis -90 -45 -2.85299e-015   XYZ
    dof rx rz
    limits (-45.0 45.0)
           (-45.0 45.0)
  end
:hierarchy
  begin
    root lhipjoint rhipjoint lowerback
    lhipjoint lfemur
    lfemur ltibia
    ltibia lfoot
    lfoot ltoes
    rhipjoint rfemur
    rfemur rtibia
    rtibia rfoot
    rfoot rtoes
    lowerback upperback
    upperback thorax
    thorax lowerneck lclavicle rclavicle
    lowerneck upperneck
    upperneck head
    lclavicle lhumerus
    lhumerus lradius
    lradius lwrist
    lwrist lhand lthumb
    lhand lfingers
    rclavicle rhumerus
    rhumerus rradius
    rradius rwrist
    rwrist rhand rthumb
    rhand rfingers
  end

#!OML:ASF F:\twosubjects\two\Thursday\Session 1\Rory.ASF
:FULLY-SPECIFIED
:DEGREES
160
root 7.53789 18.3518 -9.95241 0.958206 -3.95589 4.66945
lowerback -2.62848 0.448558 -2.52937
upperback 1.15618 0.7366 -1.77326
thorax 2.65384 0.339218 -0.368017
lowerneck -9.4601 -4.27515 -2.03737
upperneck 35.5176 -10.7554 12.9696
head 14.8396 -3.34212 4.099
rclavicle -7.50994e-015 -2.72087e-015
rhumerus -36.6704 -21.508 -74.4782
rradius 23.4586
rwrist 28.1485
rhand -25.1186 23.2336
rfingers 7.12502
rthumb 1.39704 -6.74162
lclavicle -7.50994e-015 -2.72087e-015
lhumerus -32.7968 26.9877 73.9975
lradius 23.8312
lwrist -25.4778
lhand -12.6193 29.7048
lfingers 7.12502
lthumb 13.4601 59.2498
rfemur -6.04449 6.12464 15.6171
rtibia 21.2706
rfoot -15.1013 -16.0931
rtoes 6.1265
lfemur -7.82237 -3.5424 -19.582
ltibia 16.4939
lfoot -9.97829 4.65073
ltoes 3.49995
161
root 7.53994 18.3524 -9.95255 0.892958 -3.97277 4.70404
lowerback -2.65166 0.483018 -2.63116
upperback 1.24811 0.78957 -1.75139
thorax 2.75947 0.362164 -0.285563
lowerneck -9.48983 -4.31171 -1.95986
upperneck 35.3245 -10.7948 12.9657
head 14.7532 -3.35446 4.06466
rclavicle -6.79517e-015 1.87323e-014
rhumerus -36.4976 -21.3174 -74.6412
rradius 23.619
rwrist 27.4119
rhand -25.6556 23.0662
rfingers 7.12502
rthumb 0.878411 -6.91176
lclavicle -6.79517e-015 1.87323e-014
lhumerus -32.3671 26.8687 74.421
lradius 23.7216
lwrist -24.8593
lhand -13.4254 29.7009
lfingers 7.12502
lthumb 12.6831 59.2958
rfemur -6.0013 6.17225 15.5841
rtibia 21.3143
rfoot -15.1305 -16.1657
rtoes 5.52987
lfemur -7.70509 -3.31306 -19.6487
ltibia 16.4604
lfoot -9.84116 4.62592
ltoes 4.80579
162
root 7.54401 18.3514 -9.95325 0.848693 -4.0083 5.02394
lowerback -2.59154 0.475149 -3.0094
upperback 1.19656 0.789871 -1.78977
thorax 2.66852 0.357111 -0.114216
lowerneck -9.36544 -4.31805 -2.05112
upperneck 35.2905 -10.7898 13.0096
head 14.7156 -3.3662 4.10105
rclavicle 7.6998e-015 2.57178e-015
rhumerus -36.4345 -21.0105 -74.7165
rradius 23.6954
rwrist 27.0885
rhand -25.2923 24.1177
rfingers 7.12502
rthumb 1.22927 -5.85854
lclavicle 7.6998e-015 2.57178e-015
lhumerus -32.2963 26.9481 74.5978
lradius 23.8763
lwrist -25.0289
lhand -12.9029 29.986
lfingers 7.12502
lthumb 13.1868 59.549
rfemur -6.02092 6.12574 15.2095
rtibia 21.3733
rfoot -15.1382 -16.1075
rtoes 5.44704
lfemur -7.61538 -3.34623 -20.0309
ltibia 16.4307
lfoot -9.70896 4.81004
ltoes 4.25653
163
root 7.54697 18.3522 -9.95334 0.864469 -4.0702 5.2088
lowerback -2.53574 0.45016 -3.20396
upperback 1.13073 0.759266 -1.81174
thorax 2.56798 0.340305 -0.0301888
lowerneck -9.01765 -4.27236 -2.25446
upperneck 34.9679 -10.6816 13.2138
head 14.4947 -3.35065 4.22901
rclavicle -2.03444e-016 -2.16178e-015
rhumerus -36.4465 -20.8886 -74.7994
rradius 23.8205
rwrist 27.0301
rhand -24.7756 24.7851
rfingers 7.12502
rthumb 1.7283 -5.18763
lclavicle -2.03444e-016 -2.16178e-015
lhumerus -32.1844 26.7177 74.8667
lradius 24.0715
lwrist -24.7044
lhand -11.9588 30.3011
lfingers 7.12502
lthumb 14.0967 59.803
rfemur -6.10626 5.99713 14.9794
rtibia 21.4355
rfoot -15.0696 -15.983
rtoes 5.30935
lfemur -7.6349 -3.52232 -20.2367
ltibia 16.4275
lfoot -9.8114 4.88872
ltoes 4.87578
164
root 7.54373 18.355 -9.95569 0.972458 -4.19473 5.16017
lowerback -2.57161 0.465403 -3.24195
upperback 1.0826 0.779869 -1.76502
thorax 2.53698 0.350272 0.0401743
lowerneck -8.92536 -4.17033 -2.29152
upperneck 34.6633 -10.5043 13.3297
head 14.3183 -3.2805 4.29565
rclavicle -2.17576e-015 2.45996e-015
rhumerus -36.4444 -20.8356 -74.9048
rradius 24.0117
rwrist 26.8812
rhand -24.3852 24.4928
rfingers 7.12502
rthumb 2.10531 -5.47656
lclavicle -2.17576e-015 2.45996e-015
lhumerus -31.7882 26.3326 75.2637
lradius 23.8021
lwrist -24.1716
lhand -12.7037 29.7857
lfingers 7.12502
lthumb 13.3788 59.3362
rfemur -6.26876 6.05281 15.042
rtibia 21.4574
rfoot -15.0109 -15.9689
rtoes 5.16563
lfemur -7.77303 -3.29564 -20.1546
ltibia 16.4531
lfoot -9.84356 4.69173
ltoes 4.72072
165
root 7.54049 18.3548 -9.96597 1.05166 -4.11405 4.96592
lowerback -2.61454 0.424186 -3.19495
upperback 1.07991 0.722542 -1.65559
thorax 2.55877 0.321306 0.124051
lowerneck -9.44468 -4.11612 -2.13581
upperneck 34.9526 -10.4596 13.1512
head 14.5474 -3.2275 4.20755
rclavicle -7.90946e-015 1.20016e-014
rhumerus -36.3529 -20.6456 -75.0916
rradius 24.199
rwrist 26.6427
rhand -24.6902 24.4409
rfingers 7.12502
rthumb 1.81073 -5.53116
lclavicle -7.90946e-015 1.20016e-014
lhumerus -31.5584 26.7791 75.3018
lradius 23.6456
lwrist -25.0832
lhand -13.2633 29.097
lfingers 7.12502
lthumb 12.8394 58.6821
rfemur -6.33021 6.21211 15.2913
rtibia 21.4025
rfoot -14.9481 -16.2267
rtoes 5.49007
lfemur -7.93377 -3.10847 -19.926
ltibia 16.5372
lfoot -9.76513 4.48917
ltoes 3.79949
